<svg xmlns="http://www.w3.org/2000/svg" width="512" height="512" viewBox="0 0 512 512" version="1.1">
	<path d="M 191.020 1.284 C 186.127 3.760, 186.030 4.671, 186.015 48.652 L 186 89.804 183.250 90.791 C 178.120 92.632, 172.511 97.635, 169.626 102.941 C 166.323 109.015, 165.046 118.825, 166.875 124.071 C 167.499 125.860, 167.850 127.483, 167.656 127.678 C 167.461 127.872, 146.422 116.100, 120.901 101.517 C 95.380 86.934, 73.453 75.002, 72.173 75.001 C 70.893 75.001, 68.531 76.315, 66.923 77.923 L 64 80.846 64 120.910 L 64 160.973 60.542 162.418 C 55.034 164.719, 48.509 171.951, 46.510 177.969 C 44.362 184.436, 44.816 195.839, 47.420 200.858 C 50.241 206.293, 57.249 212.580, 62.792 214.648 L 67.891 216.550 45.314 234.011 C 32.897 243.614, 22.049 252.521, 21.209 253.804 C 19.853 255.873, 19.748 267.223, 20.277 354.050 L 20.873 451.962 16.687 453.823 C 10.905 456.392, 6.453 460.373, 3.230 465.855 C 0.774 470.034, 0.500 471.454, 0.500 480 C 0.500 488.546, 0.774 489.966, 3.230 494.145 C 8.781 503.587, 16.598 507.950, 28 507.968 C 37.523 507.984, 43.872 505.225, 49.793 498.498 C 59.414 487.568, 59.286 472.096, 49.484 461.194 C 46.853 458.267, 43.130 455.428, 40.508 454.347 L 36.028 452.500 36.013 357.416 L 35.998 262.332 72.749 233.841 C 92.962 218.172, 109.577 205.609, 109.672 205.925 C 109.766 206.241, 110.046 261.962, 110.294 329.750 C 110.714 444.593, 110.631 453, 109.068 453 C 106.446 453, 98.535 458.432, 95.651 462.213 C 89.132 470.759, 88.105 482.888, 93.060 492.804 C 98.261 503.212, 106.203 508.006, 118.218 507.990 C 126.990 507.978, 133.576 505.296, 139.268 499.415 C 148.943 489.418, 149.407 471.911, 140.273 461.475 C 137.408 458.202, 131.703 454.206, 128.896 453.506 L 126.292 452.856 126.789 322.095 C 127.062 250.177, 126.975 189.682, 126.597 187.663 C 126.218 185.644, 124.944 183.094, 123.765 181.996 C 120.125 178.604, 116.064 179.420, 108.649 185.034 L 102 190.067 102 186.712 C 102 177.600, 94.051 165.864, 85.498 162.347 L 81.007 160.500 81.004 129.191 C 81.002 111.971, 81.338 98.079, 81.750 98.319 C 82.162 98.559, 105.225 111.701, 133 127.523 C 160.775 143.345, 184.017 156.787, 184.649 157.395 C 185.500 158.214, 185.907 196.564, 186.218 305.377 L 186.638 452.253 183.569 453.544 C 173.651 457.714, 167.109 466.719, 166.264 477.364 C 165.376 488.552, 169.791 497.721, 179.091 504 C 184.169 507.429, 184.480 507.500, 194.410 507.500 C 204.159 507.500, 204.741 507.375, 209.658 504.219 C 218.304 498.671, 223 490.039, 223 479.692 C 223 468.533, 215.974 457.836, 205.846 453.577 L 202.500 452.170 202.879 302.260 C 203.274 145.710, 203.362 149.483, 199.261 146.458 C 198.169 145.653, 198.943 145.132, 202.675 144.163 C 219.474 139.797, 227.924 120.173, 219.911 104.137 C 216.752 97.817, 210.141 91.575, 205.323 90.366 L 203 89.783 203 53.392 L 203 17 267 17 L 331 17 331.001 191.750 C 331.002 287.863, 331.300 385.694, 331.663 409.153 L 332.323 451.806 327.170 454.022 C 309.968 461.423, 305.185 484.751, 317.900 499.234 C 328.082 510.830, 349.085 511.152, 359.663 499.872 C 366.909 492.145, 369.502 481.680, 366.624 471.777 C 364.583 464.757, 357.797 456.937, 351.498 454.347 L 347.007 452.500 347.004 321.634 L 347 190.767 350.978 194.361 C 356.801 199.622, 361.292 201.248, 370 201.248 C 378.960 201.248, 382.813 199.765, 389.576 193.711 L 394.500 189.304 435.250 201.796 L 476 214.288 476 334.019 L 476 453.750 473.584 453.750 C 468.234 453.750, 459.448 462.644, 456.475 471.070 C 451.926 483.965, 458.755 499.717, 471.462 505.634 C 478.792 509.048, 489.679 508.961, 496.759 505.433 C 502.526 502.559, 507.371 497.577, 509.694 492.134 C 510.547 490.135, 511.639 487.719, 512.122 486.764 C 513.365 484.305, 513.257 471.723, 512 472.500 C 511.450 472.840, 511 472.280, 511 471.255 C 511 465.626, 499.516 454, 493.955 454 L 491.210 454 491.758 329.607 L 492.305 205.214 489.903 202.838 C 488.076 201.032, 476.899 197.232, 443.260 186.981 L 399.021 173.500 398.446 170 C 395.924 154.626, 384.956 144.815, 370.310 144.831 C 362.433 144.840, 356.230 147.103, 350.647 152.005 L 347 155.207 347 80.538 C 347 33.744, 346.635 5.186, 346.021 4.039 C 345.483 3.033, 343.616 1.713, 341.872 1.105 C 337.042 -0.578, 194.366 -0.409, 191.020 1.284 M 229 50.500 L 229 65 243.500 65 L 258 65 258 50.500 L 258 36 243.500 36 L 229 36 229 50.500 M 273 50.500 L 273 65 287.500 65 L 302 65 302 50.500 L 302 36 287.500 36 L 273 36 273 50.500 M 229 94.500 L 229 109 243.500 109 L 258 109 258 94.500 L 258 80 243.500 80 L 229 80 229 94.500 M 273 94.500 L 273 109 287.500 109 L 302 109 302 94.500 L 302 80 287.500 80 L 273 80 273 94.500 M 187.274 107.565 C 182.661 111.200, 181.226 116.567, 183.555 121.474 C 185.643 125.875, 190.219 128.991, 194.602 128.996 C 201.444 129.005, 208.162 120.768, 206.551 114.347 C 206.173 112.840, 204.287 110.121, 202.360 108.304 C 197.819 104.021, 192.124 103.742, 187.274 107.565 M 229 137.500 L 229 152 243.500 152 L 258 152 258 137.500 L 258 123 243.500 123 L 229 123 229 137.500 M 273 137.500 L 273 152 287.500 152 L 302 152 302 137.500 L 302 123 287.500 123 L 273 123 273 137.500 M 363.873 162.684 C 353.681 169.009, 357.757 185, 369.561 185 C 376.375 185, 382 179.574, 382 173 C 382 163.939, 371.489 157.957, 363.873 162.684 M 143 181.500 L 143 196 157.500 196 L 172 196 172 181.500 L 172 167 157.500 167 L 143 167 143 181.500 M 229 181.500 L 229 196 243.500 196 L 258 196 258 181.500 L 258 167 243.500 167 L 229 167 229 181.500 M 273 181.500 L 273 196 287.500 196 L 302 196 302 181.500 L 302 167 287.500 167 L 273 167 273 181.500 M 65.640 179.304 C 59.658 184.945, 59.597 190.797, 65.459 196.659 C 69.226 200.426, 73.981 201.095, 78.901 198.551 C 87.322 194.196, 87.322 181.804, 78.901 177.449 C 74.088 174.960, 69.576 175.591, 65.640 179.304 M 143 225 L 143 240 157.500 240 L 172 240 172 225 L 172 210 157.500 210 L 143 210 143 225 M 229 225 L 229 240 243.500 240 L 258 240 258 225 L 258 210 243.500 210 L 229 210 229 225 M 273 225 L 273 240 287.500 240 L 302 240 302 225 L 302 210 287.500 210 L 273 210 273 225 M 376 225 L 376 240 390.500 240 L 405 240 405 225 L 405 210 390.500 210 L 376 210 376 225 M 419 225 L 419 240 433.500 240 L 448 240 448 225 L 448 210 433.500 210 L 419 210 419 225 M 66 268.500 L 66 283 80.500 283 L 95 283 95 268.500 L 95 254 80.500 254 L 66 254 66 268.500 M 143 268.500 L 143 283 157.500 283 L 172 283 172 268.500 L 172 254 157.500 254 L 143 254 143 268.500 M 229 268.500 L 229 283 243.500 283 L 258 283 258 268.500 L 258 254 243.500 254 L 229 254 229 268.500 M 273 268.500 L 273 283 287.500 283 L 302 283 302 268.500 L 302 254 287.500 254 L 273 254 273 268.500 M 376 268.500 L 376 283 390.500 283 L 405 283 405 268.500 L 405 254 390.500 254 L 376 254 376 268.500 M 419 268.500 L 419 283 433.500 283 L 448 283 448 268.500 L 448 254 433.500 254 L 419 254 419 268.500 M 66 312.500 L 66 327 80.500 327 L 95 327 95 312.500 L 95 298 80.500 298 L 66 298 66 312.500 M 143 312.500 L 143 327 157.500 327 L 172 327 172 312.500 L 172 298 157.500 298 L 143 298 143 312.500 M 229 312.500 L 229 327 243.500 327 L 258 327 258 312.500 L 258 298 243.500 298 L 229 298 229 312.500 M 273 312.500 L 273 327 287.500 327 L 302 327 302 312.500 L 302 298 287.500 298 L 273 298 273 312.500 M 376 312.500 L 376 327 390.500 327 L 405 327 405 312.500 L 405 298 390.500 298 L 376 298 376 312.500 M 419 312.500 L 419 327 433.500 327 L 448 327 448 312.500 L 448 298 433.500 298 L 419 298 419 312.500 M 66 356 L 66 371 80.500 371 L 95 371 95 356 L 95 341 80.500 341 L 66 341 66 356 M 143 356 L 143 371 157.500 371 L 172 371 172 356 L 172 341 157.500 341 L 143 341 143 356 M 229 356 L 229 371 243.500 371 L 258 371 258 356 L 258 341 243.500 341 L 229 341 229 356 M 273 356 L 273 371 287.500 371 L 302 371 302 356 L 302 341 287.500 341 L 273 341 273 356 M 376 356 L 376 371 390.500 371 L 405 371 405 356 L 405 341 390.500 341 L 376 341 376 356 M 419 356 L 419 371 433.500 371 L 448 371 448 356 L 448 341 433.500 341 L 419 341 419 356 M 229 399.500 L 229 414 243.500 414 L 258 414 258 399.500 L 258 385 243.500 385 L 229 385 229 399.500 M 273 399.500 L 273 414 287.500 414 L 302 414 302 399.500 L 302 385 287.500 385 L 273 385 273 399.500 M 376 399.500 L 376 414 390.500 414 L 405 414 405 399.500 L 405 385 390.500 385 L 376 385 376 399.500 M 419 399.500 L 419 414 433.500 414 L 448 414 448 399.500 L 448 385 433.500 385 L 419 385 419 399.500 M 21.756 469.755 C 18.778 471.601, 16 476.522, 16 479.951 C 16 485.696, 22.367 492.005, 28.154 491.993 C 31.685 491.986, 36.057 489.627, 38.484 486.420 C 40.450 483.821, 40.376 476.503, 38.352 473.414 C 34.932 468.194, 27.068 466.461, 21.756 469.755 M 111.615 470.088 C 108.535 472.511, 106 476.986, 106 480 C 106 485.708, 112.551 491.993, 118.500 491.993 C 125.315 491.993, 131.877 484.268, 130.477 477.894 C 130.113 476.237, 128.267 473.333, 126.374 471.441 C 123.512 468.579, 122.205 468, 118.602 468 C 115.723 468, 113.379 468.701, 111.615 470.088 M 187.274 470.565 C 182.661 474.200, 181.226 479.567, 183.555 484.474 C 185.643 488.875, 190.219 491.991, 194.602 491.996 C 201.444 492.005, 208.162 483.768, 206.551 477.347 C 206.173 475.840, 204.287 473.121, 202.360 471.304 C 197.819 467.021, 192.124 466.742, 187.274 470.565 M 332.873 469.684 C 325.098 474.509, 325.189 485.727, 333.040 490.364 C 343.378 496.471, 355.084 484.798, 349.483 473.967 C 346.625 468.441, 338.325 466.300, 332.873 469.684 M 477.893 469.497 C 474.195 471.507, 471.727 475.734, 471.727 480.059 C 471.727 489.657, 483.618 495.558, 490.794 489.520 C 497.206 484.125, 497.475 476.380, 491.434 471.076 C 487.502 467.624, 482.428 467.032, 477.893 469.497 M 0.336 480 C 0.336 484.125, 0.513 485.813, 0.728 483.750 C 0.944 481.688, 0.944 478.313, 0.728 476.250 C 0.513 474.188, 0.336 475.875, 0.336 480" stroke="none" fill="black" fill-rule="evenodd"/>
</svg>